# AST/ASF file generated using VICON BodyLanguage
# -----------------------------------------------
:version 1.10
:name VICON
:units
  mass 1.0
  length 0.45
  angle deg
:documentation
   .ast/.asf automatically generated from VICON data using
   VICON BodyBuilder and BodyLanguage model FoxedUp or BRILLIANT.MOD
:root
   order TX TY TZ RX RY RZ
   axis XYZ
   position 0 0 0  
   orientation 0 0 0 
:bonedata
  begin
     id 1 
     name lhipjoint
     direction 0.621036 -0.695554 0.361275 
     length 2.46325 
     axis 0 0 0  XYZ
  end
  begin
     id 2 
     name lfemur
     direction 0.34202 -0.939693 0  
     length 6.54784  
     axis 0 0 20  XYZ
    dof rx ry rz
    limits (-160.0 20.0)
           (-70.0 70.0)
           (-60.0 70.0)
  end
  begin
     id 3 
     name ltibia
     direction 0.34202 -0.939693 0   
     length 7.84737   
     axis 0 0 20   XYZ
    dof rx
    limits (-10.0 170.0)
  end
  begin
     id 4 
     name lfoot
     direction 0.0790693 -0.217241 0.97291   
     length 2.59747   
     axis -90 7.62852e-016 20   XYZ
    dof rx rz
    limits (-45.0 90.0)
           (-70.0 20.0)
  end
  begin
     id 5 
     name ltoes
     direction 1.53572e-011 -4.21898e-011 1   
     length 1.29919   
     axis -90 7.62852e-016 20   XYZ
    dof rx
    limits (-90.0 20.0)
  end
  begin
     id 6 
     name rhipjoint
     direction -0.602353 -0.708375 0.367935   
     length 2.41867  
     axis 0 0 0  XYZ 
  end
  begin
     id 7 
     name rfemur
     direction -0.34202 -0.939693 0   
     length 6.92065   
     axis 0 0 -20   XYZ
    dof rx ry rz
    limits (-160.0 20.0)
           (-70.0 70.0)
           (-70.0 60.0)
  end
  begin
     id 8 
     name rtibia
     direction -0.34202 -0.939693 0   
     length 7.88883   
     axis 0 0 -20   XYZ
    dof rx
    limits (-10.0 170.0)
 end
 begin
     id 9 
     name rfoot
     direction -0.0768692 -0.211196 0.974416   
     length 2.43714  
     axis -90 -7.62852e-016 -20   XYZ
    dof rx rz
    limits (-45.0 90.0)
           (-20.0 70.0)
  end
  begin
     id 10 
     name rtoes
     direction -1.53575e-011 -4.21933e-011 1   
     length 1.22113   
     axis -90 -7.62852e-016 -20   XYZ
    dof rx
    limits (-90.0 20.0)
  end
  begin
     id 11 
     name lowerback
     direction 0.0197937 0.98943 -0.143655   
     length 2.16931   
     axis 0 0 0   XYZ
    dof rx ry rz
    limits (-20.0 45.0)
           (-30.0 30.0)
           (-30.0 30.0)
  end
  begin
     id 12 
     name upperback
     direction -0.00183968 0.999975 0.00684288   
     length 2.17221   
     axis 0 0 0   XYZ
    dof rx ry rz
    limits (-20.0 45.0)
           (-30.0 30.0)
           (-30.0 30.0)
  end
  begin
     id 13 
     name thorax
     direction -0.00950244 0.997208 0.0740685   
     length 2.22549   
     axis 0 0 0   XYZ
    dof rx ry rz
    limits (-20.0 45.0)
           (-30.0 30.0)
           (-30.0 30.0)
  end
  begin
     id 14 
     name lowerneck
     direction 0.0218238 0.996215 0.0841425   
     length 1.77269   
     axis 0 0 0   XYZ
    dof rx ry rz
    limits (-20.0 45.0)
           (-30.0 30.0)
           (-30.0 30.0)
  end
  begin
     id 15 
     name upperneck
     direction -0.00430652 0.994214 -0.107332   
     length 1.76534   
     axis 0 0 0   XYZ
    dof rx ry rz
    limits (-20.0 45.0)
           (-30.0 30.0)
           (-30.0 30.0)
  end
  begin
     id 16
     name head
     direction -0.00328946 0.998959 -0.0454998  
     length 1.82634  
     axis 0 0 0   XYZ
    dof rx ry rz
    limits (-20.0 45.0)
           (-30.0 30.0)
           (-30.0 30.0)
  end
  begin
     id 17 
     name lclavicle
     direction 0.970962 0.239191 0.00450212  
     length 3.84872  
     axis 0 0 0   XYZ
    dof ry rz
    limits (-20.0 10.0)
           (0.0 20.0)
  end
  begin
     id 18 
     name lhumerus
     direction 1 -4.48966e-011 5.74696e-028   
     length 5.22771   
     axis 180 -30 -90   XYZ
    dof rx ry rz
    limits (-60.0 90.0)
           (-90.0 90.0)
           (-90.0 90.0)
  end
  begin
     id 19
     name lradius
     direction 1 -4.4896e-011 4.25109e-027   
     length 3.45251   
     axis 180 -30 -90   XYZ
    dof rx
    limits (-10.0 170.0)
  end
  begin
     id 20
     name lwrist
     direction 1 -4.48971e-011 1.15382e-027   
     length 1.72626   
     axis -5.52449e-016 90 90   XYZ
    dof ry
    limits (-180.0 0.0)
 end
  begin
     id 21 
     name lhand
     direction 1 -4.49034e-011 2.30765e-027   
     length 0.552119   
     axis -1.47248e-015 90 90   XYZ
    dof rx rz
    limits (-90.0 90.0)
           (-45.0 45.0)
  end
  begin
     id 22 
     name lfingers
     direction 1 -4.48951e-011 4.61529e-027   
     length 0.445133   
     axis -2.94495e-015 90 90   XYZ
    dof rx
    limits (0.0 90.0)
  end
  begin
     id 23
     name lthumb
     direction 0.707107 -6.34991e-011 0.707107   
     length 0.639124   
     axis -90 45 2.85299e-015   XYZ
    dof rx rz
    limits (-45.0 45.0)
           (-45.0 45.0)
  end
  begin
     id 24 
     name rclavicle
     direction -0.97424 0.222511 -0.0366699   
     length 3.73439  
     axis 0 0 0   XYZ 
    dof ry rz
    limits (-10.0 20.0)
           (-20.0 0.0)
  end
  begin
     id 25 
     name rhumerus
     direction -1 -4.48956e-011 -4.97258e-028  
     length 5.2398   
     axis 180 30 90   XYZ
    dof rx ry rz
    limits (-90.0 60.0)
           (-90.0 90.0)
           (-90.0 90.0)
  end
  begin
     id 26 
     name rradius
     direction -1 -4.4897e-011 -1.72611e-027   
     length 3.48042   
     axis 180 30 90   XYZ
    dof rx
    limits (-10.0 170.0)
  end
  begin
     id 27 
     name rwrist
     direction -1 -4.48976e-011 1.15382e-027   
     length 1.74021   
     axis -5.52449e-016 -90 -90   XYZ
    dof ry
    limits (-180.0 0.0)
  end
  begin
     id 28
     name rhand
     direction -1 -4.48963e-011 2.30765e-027   
     length 0.618713   
     axis -1.47248e-015 -90 -90   XYZ
    dof rx rz
    limits (-90.0 90.0)
           (-45.0 45.0)
  end
  begin
     id 29
     name rfingers
     direction -1 -4.4888e-011 4.61529e-027   
     length 0.498823   
     axis -2.94495e-015 -90 -90   XYZ
    dof rx
    limits (0.0 90.0)
  end
  begin
     id 30
     name rthumb
     direction -0.707107 -6.34968e-011 0.707107   
     length 0.716213   
     axis -90 -45 -2.85299e-015   XYZ
    dof rx rz
    limits (-45.0 45.0)
           (-45.0 45.0)
  end
:hierarchy
  begin
    root lhipjoint rhipjoint lowerback
    lhipjoint lfemur
    lfemur ltibia
    ltibia lfoot
    lfoot ltoes
    rhipjoint rfemur
    rfemur rtibia
    rtibia rfoot
    rfoot rtoes
    lowerback upperback
    upperback thorax
    thorax lowerneck lclavicle rclavicle
    lowerneck upperneck
    upperneck head
    lclavicle lhumerus
    lhumerus lradius
    lradius lwrist
    lwrist lhand lthumb
    lhand lfingers
    rclavicle rhumerus
    rhumerus rradius
    rradius rwrist
    rwrist rhand rthumb
    rhand rfingers
  end

#!OML:ASF G:\JayActor3\Patient Classification 1\Patient 1\Session 5\male.ASF
:FULLY-SPECIFIED
:DEGREES
148
root 48.7418 17.5094 -4.94745 -66.2962 84.696 -66.216
lowerback 0.552055 -1.81729 3.1151
upperback 1.19941 -2.4175 0.496747
thorax 0.812902 -1.18001 -1.2362
lowerneck -7.9691 0.772396 1.95065
upperneck 14.0539 0.737829 1.06154
head 5.55503 0.583881 0.0685143
rclavicle -3.89742e-014 5.1684e-015
rhumerus -36.1228 -7.45648 -84.4188
rradius 29.9465
rwrist -0.710355
rhand -22.2414 -26.5266
rfingers 7.12502
rthumb 4.17562 -56.4654
lclavicle -3.89742e-014 5.1684e-015
lhumerus -32.4288 2.74966 82.3936
lradius 30.4733
lwrist 18.1449
lhand -15.7668 12.047
lfingers 7.12502
lthumb 10.4251 41.7685
rfemur -5.52655 3.42427 20.0266
rtibia 50.5059
rfoot 12.5575 -6.04247
rtoes -0.633078
lfemur -4.17251 12.3795 -17.436
ltibia 19.3139
lfoot 9.41997 -3.24846
ltoes -31.2045
149
root 48.7112 17.5092 -4.94503 -67.2982 84.7405 -67.1687
lowerback 0.449836 -1.82071 3.13201
upperback 1.16924 -2.42586 0.476648
thorax 0.837343 -1.18415 -1.26915
lowerneck -7.93979 0.759087 1.93612
upperneck 14.1026 0.719597 1.08983
head 5.56498 0.577427 0.0785572
rclavicle -3.75206e-014 1.31198e-014
rhumerus -36.1882 -7.47638 -84.4196
rradius 29.916
rwrist -0.658046
rhand -22.2421 -26.6133
rfingers 7.12502
rthumb 4.175 -56.5521
lclavicle -3.75206e-014 1.31198e-014
lhumerus -32.5366 2.75061 82.3627
lradius 30.6229
lwrist 18.228
lhand -15.8092 12.0156
lfingers 7.12502
lthumb 10.3842 41.7392
rfemur -4.87698 3.61023 20.151
rtibia 50.1757
rfoot 13.8824 -6.2767
rtoes -0.120899
lfemur -4.20453 12.3944 -17.3779
ltibia 19.2605
lfoot 9.53141 -3.52828
ltoes -31.0648
150
root 48.6797 17.5085 -4.94242 -68.2434 84.7721 -68.0709
lowerback 0.33689 -1.82304 3.16204
upperback 1.1368 -2.43319 0.461635
thorax 0.86519 -1.18763 -1.30457
lowerneck -7.89585 0.748512 1.91112
upperneck 14.1405 0.706781 1.11931
head 5.56902 0.572975 0.0909723
rclavicle -1.67725e-014 1.63003e-014
rhumerus -36.253 -7.48006 -84.4189
rradius 29.8943
rwrist -0.620003
rhand -22.2577 -26.6822
rfingers 7.12502
rthumb 4.15992 -56.6214
lclavicle -1.67725e-014 1.63003e-014
lhumerus -32.6496 2.77767 82.33
lradius 30.7556
lwrist 18.3094
lhand -15.8609 11.9681
lfingers 7.12502
lthumb 10.3344 41.6941
rfemur -4.22672 3.8033 20.2954
rtibia 49.7362
rfoot 15.2528 -6.50395
rtoes 0.240559
lfemur -4.26636 12.4053 -17.3149
ltibia 19.2455
lfoot 9.62562 -3.79341
ltoes -30.9358
151
root 48.6474 17.5072 -4.93936 -69.1296 84.794 -68.9212
lowerback 0.211304 -1.82223 3.20127
upperback 1.10945 -2.43699 0.447121
thorax 0.905146 -1.18901 -1.34518
lowerneck -7.86791 0.739819 1.88949
upperneck 14.1775 0.695753 1.14617
head 5.57557 0.56931 0.102208
rclavicle 9.97651e-015 -3.18055e-015
rhumerus -36.3054 -7.48051 -84.4218
rradius 29.8823
rwrist -0.585409
rhand -22.2764 -26.749
rfingers 7.12502
rthumb 4.14187 -56.6884
lclavicle 9.97651e-015 -3.18055e-015
lhumerus -32.7489 2.81388 82.2933
lradius 30.8672
lwrist 18.3991
lhand -15.9073 11.9173
lfingers 7.12502
lthumb 10.2896 41.6456
rfemur -3.58019 3.99764 20.4572
rtibia 49.1963
rfoot 16.5912 -6.7301
rtoes 0.4057
lfemur -4.3577 12.4153 -17.2492
ltibia 19.2656
lfoot 9.70703 -4.0397
ltoes -30.7936
152
root 48.6142 17.5053 -4.93593 -69.8848 84.8104 -69.6419
lowerback 0.0812127 -1.81714 3.24416
upperback 1.08292 -2.43537 0.433201
thorax 0.948618 -1.18755 -1.38741
lowerneck -7.8404 0.731662 1.86283
upperneck 14.2123 0.685777 1.17506
head 5.58144 0.565988 0.114973
rclavicle 4.30742e-014 -2.38542e-015
rhumerus -36.3574 -7.46307 -84.4282
rradius 29.8821
rwrist -0.562726
rhand -22.2913 -26.8227
rfingers 7.12502
rthumb 4.12752 -56.7625
lclavicle 4.30742e-014 -2.38542e-015
lhumerus -32.8463 2.86509 82.2544
lradius 30.9596
lwrist 18.4955
lhand -15.9475 11.8698
lfingers 7.12502
lthumb 10.2508 41.6
rfemur -2.93384 4.18902 20.6274
rtibia 48.5645
rfoot 17.8624 -6.97702
rtoes 0.491134
lfemur -4.46666 12.431 -17.1873
ltibia 19.3119
lfoot 9.77703 -4.26799
ltoes -30.6478
153
root 48.5803 17.5027 -4.93229 -70.5088 84.8259 -70.2294
lowerback -0.0515206 -1.80493 3.2936
upperback 1.06199 -2.42456 0.414088
thorax 0.999278 -1.18123 -1.43877
lowerneck -7.82672 0.722095 1.83942
upperneck 14.2484 0.672915 1.20379
head 5.59013 0.561412 0.127018
rclavicle -7.45443e-017 -2.78299e-015
rhumerus -36.4017 -7.43777 -84.4425
rradius 29.8927
rwrist -0.554813
rhand -22.3061 -26.9028
rfingers 7.12502
rthumb 4.11317 -56.8428
lclavicle -7.45443e-017 -2.78299e-015
lhumerus -32.9328 2.92042 82.2117
lradius 31.0282
lwrist 18.5914
lhand -15.9746 11.8303
lfingers 7.12502
lthumb 10.2246 41.5618
rfemur -2.28677 4.36627 20.797
rtibia 47.85
rfoot 19.0485 -7.23785
rtoes 0.572059
lfemur -4.58811 12.4586 -17.1339
ltibia 19.3813
lfoot 9.8328 -4.48506
ltoes -30.5146
154
root 48.5456 17.4996 -4.92836 -71.0492 84.8344 -70.73
lowerback -0.188566 -1.78428 3.35528
upperback 1.04746 -2.40295 0.393425
thorax 1.05895 -1.16912 -1.49874
lowerneck -7.81934 0.708232 1.81102
upperneck 14.2846 0.654076 1.23638
head 5.5999 0.55393 0.140701
rclavicle -3.24267e-014 -1.78906e-014
rhumerus -36.4394 -7.41092 -84.4599
rradius 29.9167
rwrist -0.568106
rhand -22.3388 -26.9933
rfingers 7.12502
rthumb 4.08161 -56.9339
lclavicle -3.24267e-014 -1.78906e-014
lhumerus -33.0023 2.97417 82.1707
lradius 31.065
lwrist 18.6831
lhand -15.994 11.8005
lfingers 7.12502
lthumb 10.2059 41.5329
rfemur -1.63891 4.52512 20.9738
rtibia 47.0597
rfoot 20.1301 -7.522
rtoes 0.713462
lfemur -4.71706 12.5019 -17.0792
ltibia 19.4696
lfoot 9.87538 -4.69087
ltoes -30.3738
155
root 48.5099 17.4962 -4.92395 -71.503 84.8283 -71.1456
lowerback -0.326637 -1.75552 3.43456
upperback 1.03554 -2.37091 0.373629
thorax 1.12184 -1.15148 -1.56758
lowerneck -7.81683 0.689206 1.78645
upperneck 14.3187 0.628316 1.26318
head 5.60987 0.542812 0.15146
rclavicle -1.09456e-014 2.10712e-014
rhumerus -36.4735 -7.38423 -84.4787
rradius 29.9554
rwrist -0.590816
rhand -22.372 -27.0951
rfingers 7.12502
rthumb 4.04957 -57.0364
lclavicle -1.09456e-014 2.10712e-014
lhumerus -33.0543 3.02306 82.1308
lradius 31.0672
lwrist 18.7669
lhand -16.0069 11.7862
lfingers 7.12502
lthumb 10.1935 41.5192
rfemur -0.99962 4.66525 21.1661
rtibia 46.2008
rfoot 21.0967 -7.84048
rtoes 0.957203
lfemur -4.86126 12.5603 -17.0163
ltibia 19.5753
lfoot 9.906 -4.88431
ltoes -30.2446
156
root 48.4732 17.4926 -4.91912 -71.8635 84.8112 -71.4682
lowerback -0.466527 -1.72163 3.5272
upperback 1.02433 -2.33245 0.355036
thorax 1.18648 -1.13041 -1.64255
lowerneck -7.80768 0.66752 1.76436
upperneck 14.3495 0.599648 1.28436
head 5.61771 0.529963 0.159803
rclavicle -1.59276e-014 2.18663e-014
rhumerus -36.5076 -7.35012 -84.4997
rradius 30.0069
rwrist -0.616067
rhand -22.3991 -27.2011
rfingers 7.12502
rthumb 4.02335 -57.1429
lclavicle -1.59276e-014 2.18663e-014
lhumerus -33.1027 3.08395 82.0873
lradius 31.0411
lwrist 18.8249
lhand -16.0161 11.7669
lfingers 7.12502
lthumb 10.1847 41.5004
rfemur -0.370735 4.78343 21.3673
rtibia 45.2799
rfoot 21.9515 -8.17739
rtoes 1.26871
lfemur -5.0166 12.6303 -16.9488
ltibia 19.6949
lfoot 9.92149 -5.06182
ltoes -30.1214
157
root 48.4348 17.4892 -4.91345 -72.231 84.7745 -71.8056
lowerback -0.607395 -1.68676 3.63606
upperback 1.01314 -2.29319 0.342614
thorax 1.25155 -1.10869 -1.72015
lowerneck -7.80717 0.644597 1.75085
upperneck 14.3856 0.568903 1.29815
head 5.62873 0.516105 0.164325
rclavicle 3.18366e-014 3.57812e-015
rhumerus -36.5285 -7.3059 -84.5248
rradius 30.062
rwrist -0.635937
rhand -22.4117 -27.3004
rfingers 7.12502
rthumb 4.01123 -57.2423
lclavicle 3.18366e-014 3.57812e-015
lhumerus -33.1456 3.15713 82.0391
lradius 30.9924
lwrist 18.8574
lhand -16.0205 11.7509
lfingers 7.12502
lthumb 10.1804 41.4846
rfemur 0.236175 4.88076 21.594
rtibia 44.3044
rfoot 22.6863 -8.54796
rtoes 1.60014
lfemur -5.19014 12.7059 -16.863
ltibia 19.8205
lfoot 9.93379 -5.23027
ltoes -29.984
158
root 48.3952 17.4859 -4.90731 -72.493 84.7228 -72.039
lowerback -0.740172 -1.65384 3.75675
upperback 0.994697 -2.25649 0.336616
thorax 1.30448 -1.0884 -1.79726
lowerneck -7.79144 0.624746 1.73481
upperneck 14.4251 0.543834 1.30824
head 5.63824 0.504713 0.168464
rclavicle 1.18028e-015 1.19271e-014
rhumerus -36.5501 -7.2363 -84.5532
rradius 30.1197
rwrist -0.655992
rhand -22.4248 -27.3811
rfingers 7.12502
rthumb 3.99853 -57.3234
lclavicle 1.18028e-015 1.19271e-014
lhumerus -33.2066 3.26164 81.9822
lradius 30.9227
lwrist 18.8563
lhand -16.02 11.7236
lfingers 7.12502
lthumb 10.1809 41.4573
rfemur 0.823467 4.96246 21.8337
rtibia 43.2815
rfoot 23.2977 -8.94117
rtoes 1.91611
lfemur -5.36381 12.7789 -16.7679
ltibia 19.9364
lfoot 9.94157 -5.3829
ltoes -29.8489
159
root 48.3541 17.4829 -4.9004 -72.6574 84.6631 -72.1756
lowerback -0.862995 -1.6204 3.87987
upperback 0.974402 -2.21892 0.333299
thorax 1.35016 -1.06776 -1.87249
lowerneck -7.78166 0.606721 1.72242
upperneck 14.4733 0.52129 1.31352
head 5.65153 0.49455 0.170734
rclavicle 1.54679e-015 -7.95139e-016
rhumerus -36.5603 -7.15347 -84.5859
rradius 30.1738
rwrist -0.666805
rhand -22.4336 -27.4593
rfingers 7.12502
rthumb 3.99007 -57.4016
lclavicle 1.54679e-015 -7.95139e-016
lhumerus -33.275 3.38049 81.919
lradius 30.8372
lwrist 18.8281
lhand -16.0204 11.6808
lfingers 7.12502
lthumb 10.1805 41.4144
rfemur 1.38674 5.03231 22.0824
rtibia 42.2198
rfoot 23.7805 -9.34931
rtoes 2.15338
lfemur -5.52958 12.8445 -16.6676
ltibia 20.0292
lfoot 9.95305 -5.52336
ltoes -29.7101
160
root 48.3115 17.4803 -4.89287 -72.7309 84.6017 -72.2183
lowerback -0.975122 -1.58915 3.99975
upperback 0.956175 -2.18406 0.33177
thorax 1.39215 -1.04851 -1.94372
lowerneck -7.77449 0.593092 1.70898
upperneck 14.5204 0.504734 1.31874
head 5.66492 0.4872 0.173585
rclavicle -1.06971e-014 -4.37326e-015
rhumerus -36.5516 -7.0557 -84.6239
rradius 30.2199
rwrist -0.666918
rhand -22.4411 -27.5193
rfingers 7.12502
rthumb 3.98282 -57.4618
lclavicle -1.06971e-014 -4.37326e-015
lhumerus -33.3493 3.51216 81.8518
lradius 30.7413
lwrist 18.7801
lhand -16.0168 11.6487
lfingers 7.12502
lthumb 10.184 41.3822
rfemur 1.92583 5.08816 22.3313
rtibia 41.1268
rfoot 24.1319 -9.79656
rtoes 2.31993
lfemur -5.67383 12.8983 -16.5681
ltibia 20.0848
lfoot 9.97178 -5.65219
ltoes -29.5667
161
root 48.2669 17.4781 -4.88463 -72.6748 84.5485 -72.1287
lowerback -1.07319 -1.55893 4.10516
upperback 0.940869 -2.14995 0.327713
thorax 1.42977 -1.02979 -2.009
lowerneck -7.77952 0.58464 1.69576
upperneck 14.5729 0.493823 1.33023
head 5.68212 0.483141 0.178838
rclavicle 5.97907e-015 1.07344e-014
rhumerus -36.5243 -6.95136 -84.668
rradius 30.266
rwrist -0.661573
rhand -22.447 -27.5647
rfingers 7.12502
rthumb 3.97709 -57.5073
lclavicle 5.97907e-015 1.07344e-014
lhumerus -33.4266 3.6539 81.7792
lradius 30.6395
lwrist 18.7153
lhand -16.0178 11.6062
lfingers 7.12502
lthumb 10.183 41.3398
rfemur 2.43453 5.13259 22.568
rtibia 40.0134
rfoot 24.3116 -10.2897
rtoes 2.6369
lfemur -5.79581 12.9409 -16.4809
ltibia 20.0966
lfoot 10.0038 -5.76875
ltoes -29.4212
